<?xml version="1.0" standalone="no"?>
<!DOCTYPE svg PUBLIC "-//W3C//DTD SVG 20010904//EN"
 "http://www.w3.org/TR/2001/REC-SVG-20010904/DTD/svg10.dtd">
<svg version="1.0" xmlns="http://www.w3.org/2000/svg"
 width="500.000000pt" height="500.000000pt" viewBox="0 0 500.000000 500.000000"
 preserveAspectRatio="xMidYMid meet">
<metadata>
Created by potrace 1.11, written by Peter Selinger 2001-2013
</metadata>
<g transform="translate(0.000000,500.000000) scale(0.100000,-0.100000)"
fill="#000000" stroke="none">
<path d="M1245 3545 c-213 -43 -350 -121 -449 -258 -118 -163 -136 -444 -38
-597 91 -142 221 -206 643 -314 348 -90 458 -147 514 -269 18 -37 22 -63 20
-121 -3 -123 -56 -200 -172 -253 -175 -80 -489 -65 -723 34 -100 43 -227 121
-264 162 -24 27 -40 27 -54 -1 -24 -49 -84 -153 -93 -162 -14 -15 -11 -38 8
-52 152 -118 369 -217 548 -248 17 -3 41 -9 55 -12 43 -10 352 -14 405 -4 28
5 68 12 89 15 54 9 163 49 222 82 72 39 175 147 209 218 16 32 31 64 32 70 1
5 7 30 13 55 16 65 14 216 -4 283 -24 89 -53 136 -125 207 -110 108 -236 160
-589 245 -357 86 -447 130 -498 239 -19 41 -23 65 -21 131 6 213 161 326 452
328 206 2 438 -80 563 -200 7 -7 15 -13 17 -13 3 0 125 209 125 215 0 11 -139
95 -222 135 -157 74 -241 92 -438 95 -100 1 -189 -2 -225 -10z"/>
<path d="M3389 3556 c-2 -2 -20 -6 -39 -9 -41 -7 -74 -14 -100 -22 -10 -3 -27
-8 -38 -10 -37 -7 -169 -72 -242 -120 -90 -59 -210 -178 -271 -270 -42 -63
-108 -184 -110 -202 -1 -5 -6 -19 -11 -33 -5 -14 -18 -59 -29 -100 -128 -512
126 -1062 587 -1271 116 -53 227 -74 370 -72 148 3 291 56 412 154 34 27 62
49 64 49 2 0 4 -42 3 -92 l0 -93 200 0 200 0 0 543 0 542 -401 0 -401 0 -1
-175 0 -175 202 -2 201 -3 0 -29 c1 -32 -19 -62 -85 -125 -164 -158 -383 -207
-568 -125 -199 88 -320 308 -320 584 0 204 55 363 170 485 91 98 192 143 319
143 169 0 332 -95 421 -243 l31 -52 171 129 c94 71 175 133 180 138 12 12 -43
103 -106 176 -71 81 -144 136 -253 190 -133 65 -221 85 -401 90 -82 2 -152 3
-155 0z"/>
</g>
</svg>
